<?xml version="1.0" encoding="utf-8"?>
<!-- Generator: Adobe Illustrator 27.1.1, SVG Export Plug-In . SVG Version: 6.00 Build 0)  -->
<svg version="1.1" id="Layer_1" xmlns="http://www.w3.org/2000/svg" xmlns:xlink="http://www.w3.org/1999/xlink" x="0px" y="0px"
	 viewBox="0 0 405.1 71" style="enable-background:new 0 0 405.1 71;" xml:space="preserve">
<style type="text/css">
	.st0{fill:#727175;}
	.st1{fill:#0091DA;}
	.st2{fill:none;}
	.st3{fill:url(#SVGID_1_);}
	.st4{fill:url(#SVGID_00000096746108233379059170000001488462454741700030_);}
	.st5{fill:url(#SVGID_00000045602752852463671280000002076653772800671152_);}
	.st6{fill:url(#SVGID_00000182513788894938078970000004791627528806062494_);}
	.st7{fill:url(#SVGID_00000081650030383823092910000015128901356122623677_);}
	.st8{fill:url(#SVGID_00000146492808949489982910000000009228072959595708_);}
	.st9{fill:url(#SVGID_00000065753531523000708330000012697704671926620056_);}
	.st10{fill:#FFFFFF;}
	.st11{fill:url(#SVGID_00000173153775683105548950000007785935798986547854_);}
	.st12{fill:url(#SVGID_00000171714215086916423020000016884577085022353585_);}
	.st13{fill:url(#SVGID_00000100341413426041044720000016044386871773013642_);}
	.st14{fill:url(#SVGID_00000093152380113774481700000001266802037523340184_);}
	.st15{fill:url(#SVGID_00000067925498433170767960000015639810700778502057_);}
	.st16{fill:url(#SVGID_00000063592185900008859640000000847440146025354112_);}
	.st17{fill:url(#SVGID_00000146501193133572998740000001526974558380797366_);}
	.st18{fill:url(#SVGID_00000062903256126866504400000007201750860057586321_);}
	.st19{fill:url(#SVGID_00000067956034105881225900000001629595677251341995_);}
	.st20{fill:url(#SVGID_00000088115960323330711700000004162527218364394673_);}
	.st21{fill:url(#SVGID_00000120560390292802263320000003413853066014661260_);}
	.st22{fill:url(#SVGID_00000034799761713619711200000005407525593556837788_);}
	.st23{fill:url(#SVGID_00000126316061951087665400000013692299652532226464_);}
	.st24{fill:url(#SVGID_00000145748296302656621970000012701932604634270908_);}
	.st25{fill:url(#SVGID_00000044897694320163704220000003756770652899602573_);}
	.st26{fill:url(#SVGID_00000003812501497018349600000004235967608360492219_);}
	.st27{fill:url(#SVGID_00000037694581384604906320000000877519455897876669_);}
	.st28{fill:url(#SVGID_00000106831988444510548560000006023633131620242100_);}
	.st29{fill:url(#SVGID_00000161597652258415174780000008906527429901619080_);}
	.st30{fill:url(#SVGID_00000132083697899361705080000000619101259325693827_);}
	.st31{fill:url(#SVGID_00000100384719039112738450000002431405882532281729_);}
	.st32{fill:url(#SVGID_00000035528406147149394880000008690774719105028231_);}
	.st33{fill:url(#SVGID_00000164480205623371945370000012148364167171361684_);}
	.st34{fill:url(#SVGID_00000124138018521214496650000011936365267644760970_);}
	.st35{fill:url(#SVGID_00000165216240420209011840000006927427509253083550_);}
	.st36{fill:url(#SVGID_00000006673694049569962220000015477119551633389186_);}
	.st37{fill:url(#SVGID_00000037694160894223933070000007957777677149087876_);}
	.st38{fill:url(#SVGID_00000065062723343049562260000011257566200518243204_);}
	.st39{fill:url(#SVGID_00000139275330175829037560000014097907165146646431_);}
	.st40{fill:url(#SVGID_00000099644342521528316440000000276222908875373974_);}
	.st41{fill:url(#SVGID_00000085214057656604282680000008134609358062213819_);}
	.st42{fill:url(#SVGID_00000032630713866870359320000003167248946355614083_);}
	.st43{fill:url(#SVGID_00000121961494229014760700000016046977729495931292_);}
	.st44{fill:url(#SVGID_00000147215706171891341430000013178561313249663135_);}
	.st45{fill:url(#SVGID_00000103264917410636573760000008500722363665806236_);}
</style>
<g>
	<g>
		<g>
			<path class="st10" d="M101.5,13h-9.9V9.8h23.1V13h-9.9v26.3h-3.3V13z"/>
			<path class="st10" d="M129.8,19.1c1.5,1.7,2.3,3.9,2.3,6.7v13.5h-3.2v-3.5c-0.8,1.3-1.9,2.2-3.3,2.9c-1.4,0.7-2.9,1-4.5,1
				c-2.4,0-4.3-0.6-5.8-1.9s-2.3-3-2.3-5.1c0-1.4,0.4-2.7,1.2-3.8c0.8-1.1,1.8-2,3.2-2.6c1.3-0.6,2.8-0.9,4.3-0.9
				c2.2,0,4.6,0.4,7.2,1.2v-0.8c0-1.8-0.5-3.3-1.4-4.6c-0.9-1.2-2.5-1.9-4.6-1.9c-1,0-2,0.2-3.1,0.5c-1,0.4-2.2,0.9-3.4,1.5
				l-1.3-2.6c2.9-1.4,5.5-2.1,8-2.1C126.1,16.6,128.3,17.4,129.8,19.1z M126.2,35.7c1.4-0.8,2.3-1.9,2.7-3.4v-3.4
				c-2.2-0.6-4.4-0.9-6.7-0.9c-1.7,0-3.1,0.4-4.3,1.3c-1.2,0.9-1.8,1.9-1.8,3.3c0,1.3,0.5,2.4,1.6,3.2c1,0.8,2.4,1.2,4,1.2
				C123.3,36.9,124.8,36.5,126.2,35.7z"/>
			<path class="st10" d="M153,17.7c1.3,0.7,2.2,1.7,2.9,3c0.7,1.3,1,2.8,1,4.5v14.1h-3.2V25.6c0-1.8-0.5-3.3-1.5-4.4
				c-1-1.1-2.4-1.7-4-1.7c-1.2,0-2.4,0.3-3.4,0.8s-1.9,1.2-2.5,2.1c-0.6,0.9-0.9,1.8-0.9,2.8v14.1h-3.2V17.1h3.2v3.5
				c0.7-1.2,1.6-2.2,3-2.9c1.3-0.7,2.8-1.1,4.3-1.1C150.3,16.6,151.7,16.9,153,17.7z"/>
			<path class="st10" d="M160.5,36.7l13.1-16.6h-12.8v-3h17.1v2.5l-13.1,16.6H178v3h-17.5V36.7z"/>
			<path class="st10" d="M200.3,17.1v22.1h-3.2v-3.5c-0.7,1.2-1.6,2.2-3,2.9c-1.3,0.7-2.8,1.1-4.3,1.1c-1.6,0-3.1-0.4-4.3-1.1
				c-1.3-0.7-2.2-1.7-2.9-3c-0.7-1.3-1-2.8-1-4.5V17.1h3.2v13.7c0,1.8,0.5,3.3,1.5,4.4c1,1.1,2.4,1.7,4,1.7c1.2,0,2.4-0.3,3.4-0.8
				c1.1-0.5,1.9-1.2,2.5-2.1c0.6-0.9,0.9-1.8,0.9-2.8V17.1H200.3z"/>
			<path class="st10" d="M242.3,32.6h-16.4l-3,6.7h-3.6l13-29.4h3.6l13,29.4h-3.6L242.3,32.6z M240.9,29.4l-6.8-15.5l-6.9,15.5
				H240.9z"/>
			<path class="st10" d="M256.2,38.2c-1.8-1.1-3.2-2.5-4.2-4.3c-1-1.8-1.6-3.7-1.6-5.8c0-2.1,0.5-4,1.6-5.7c1-1.8,2.4-3.2,4.2-4.2
				c1.8-1.1,3.7-1.6,5.7-1.6c1.5,0,2.9,0.3,4.3,0.9c1.4,0.6,2.6,1.4,3.6,2.4l-2.2,2.2c-0.7-0.8-1.6-1.4-2.6-1.9
				c-1-0.5-2-0.7-3.1-0.7c-1.5,0-2.8,0.4-4,1.2c-1.2,0.8-2.2,1.8-3,3.2c-0.7,1.3-1.1,2.8-1.1,4.3c0,1.6,0.4,3,1.1,4.3
				c0.7,1.3,1.7,2.4,3,3.2c1.2,0.8,2.6,1.2,4,1.2c1.1,0,2.1-0.2,3.1-0.7c1-0.5,1.9-1.1,2.7-2l2.2,2.2c-1.1,1.1-2.3,1.9-3.7,2.5
				c-1.4,0.6-2.8,0.9-4.3,0.9C259.8,39.8,257.9,39.2,256.2,38.2z"/>
			<path class="st10" d="M288.9,19.1c1.5,1.7,2.3,3.9,2.3,6.7v13.5H288v-3.5c-0.8,1.3-1.9,2.2-3.3,2.9c-1.4,0.7-2.9,1-4.5,1
				c-2.4,0-4.3-0.6-5.8-1.9s-2.3-3-2.3-5.1c0-1.4,0.4-2.7,1.2-3.8c0.8-1.1,1.8-2,3.2-2.6c1.3-0.6,2.8-0.9,4.3-0.9
				c2.2,0,4.6,0.4,7.2,1.2v-0.8c0-1.8-0.5-3.3-1.4-4.6c-0.9-1.2-2.5-1.9-4.6-1.9c-1,0-2,0.2-3.1,0.5c-1,0.4-2.2,0.9-3.4,1.5
				l-1.3-2.6c2.9-1.4,5.5-2.1,8-2.1C285.2,16.6,287.4,17.4,288.9,19.1z M285.3,35.7c1.4-0.8,2.3-1.9,2.7-3.4v-3.4
				c-2.2-0.6-4.4-0.9-6.7-0.9c-1.7,0-3.1,0.4-4.3,1.3c-1.2,0.9-1.8,1.9-1.8,3.3c0,1.3,0.5,2.4,1.6,3.2c1,0.8,2.4,1.2,4,1.2
				C282.4,36.9,283.9,36.5,285.3,35.7z"/>
			<path class="st10" d="M317.2,9.3v29.9H314v-4.2c-0.9,1.5-2,2.6-3.4,3.4c-1.4,0.8-2.9,1.2-4.7,1.2c-1.9,0-3.6-0.5-5.2-1.5
				s-2.8-2.4-3.7-4.1c-0.9-1.8-1.3-3.8-1.3-6c0-2.2,0.4-4.2,1.3-6c0.9-1.8,2.1-3.1,3.7-4.1s3.3-1.5,5.2-1.5c1.7,0,3.3,0.4,4.7,1.2
				c1.4,0.8,2.5,2,3.4,3.4v-12H317.2z M310.4,35.8c1.1-0.7,2-1.8,2.7-3.1c0.6-1.3,0.9-2.8,0.9-4.5c0-1.7-0.3-3.2-0.9-4.5
				c-0.6-1.3-1.5-2.3-2.7-3.1c-1.1-0.7-2.4-1.1-3.9-1.1c-1.4,0-2.7,0.4-3.8,1.1c-1.1,0.7-2,1.8-2.6,3.1c-0.6,1.3-0.9,2.8-0.9,4.5
				c0,1.7,0.3,3.2,0.9,4.5c0.6,1.3,1.5,2.4,2.6,3.1c1.1,0.7,2.4,1.1,3.8,1.1C308,36.9,309.3,36.5,310.4,35.8z"/>
			<path class="st10" d="M337.2,36.1c1.3-0.5,2.3-1.1,3-1.9l2,2.1c-0.9,1-2.3,1.9-4,2.5s-3.3,0.9-4.9,0.9c-2,0-3.8-0.5-5.5-1.5
				c-1.7-1-3.1-2.4-4.1-4.2c-1-1.8-1.6-3.8-1.6-6c0-2.1,0.5-4.1,1.5-5.9c1-1.8,2.3-3.2,4-4.2c1.7-1,3.5-1.5,5.5-1.5
				c3.3,0,5.9,1.2,7.7,3.5c1.8,2.3,2.8,5.4,2.8,9.3h-18.1c0.2,2.2,1.1,4,2.5,5.4c1.4,1.4,3.2,2.1,5.4,2.1
				C334.5,36.9,335.9,36.6,337.2,36.1z M328,21.4c-1.4,1.3-2.3,3-2.6,5.1h14.9c-0.2-2.1-1-3.8-2.2-5.1c-1.2-1.3-2.9-1.9-5-1.9
				C331.1,19.5,329.4,20.1,328,21.4z"/>
			<path class="st10" d="M376.1,17.7c1.2,0.7,2.1,1.7,2.8,3c0.7,1.3,1,2.8,1,4.4v14.1h-3.2V25.6c0-1.8-0.5-3.3-1.4-4.4
				c-1-1.1-2.2-1.7-3.7-1.7c-1.8,0-3.2,0.5-4.3,1.6c-1.1,1.1-1.7,2.4-1.7,4.1v14.1h-3.2V25.6c0-1.8-0.5-3.3-1.4-4.4
				c-1-1.1-2.2-1.7-3.7-1.7c-1.8,0-3.2,0.5-4.3,1.6c-1.1,1.1-1.7,2.4-1.7,4.1v14.1h-3.2V17.1h3.2v3.3c0.6-1.2,1.4-2.1,2.5-2.8
				c1.1-0.7,2.4-1,3.9-1c1.7,0,3.3,0.5,4.6,1.4c1.3,0.9,2.2,2.2,2.8,3.9c0.3-1.6,1.1-2.8,2.4-3.8c1.3-1,2.8-1.5,4.5-1.5
				C373.5,16.6,374.9,16.9,376.1,17.7z"/>
			<path class="st10" d="M383.7,46.2l0.8-2.7c0.7,0.4,1.6,0.6,2.6,0.6c0.7,0,1.4-0.1,1.8-0.4c0.5-0.3,0.9-0.8,1.4-1.5l1.3-2.7
				L382,17.1h3.6l7.8,18.4l7.3-18.4h3.5L394,41.7c-0.7,1.8-1.7,3.1-2.7,4s-2.4,1.2-4,1.3C385.9,47,384.8,46.7,383.7,46.2z"/>
		</g>
	</g>
	<path class="st10" d="M211.6,10.9c0.7,0.4,1.2,0.9,1.6,1.6c0.4,0.7,0.6,1.4,0.6,2.1s-0.2,1.5-0.6,2.1c-0.4,0.7-0.9,1.2-1.6,1.6
		c-0.7,0.4-1.4,0.6-2.1,0.6c-0.8,0-1.5-0.2-2.1-0.6c-0.7-0.4-1.2-0.9-1.6-1.6c-0.4-0.7-0.6-1.4-0.6-2.1s0.2-1.5,0.6-2.1
		c0.4-0.7,0.9-1.2,1.6-1.6c0.7-0.4,1.4-0.6,2.1-0.6C210.3,10.3,211,10.5,211.6,10.9z M211.3,17.8c0.6-0.3,1-0.8,1.3-1.3
		c0.3-0.6,0.5-1.2,0.5-1.8c0-0.7-0.2-1.3-0.5-1.8c-0.3-0.6-0.8-1-1.3-1.3c-0.6-0.3-1.2-0.5-1.8-0.5c-0.7,0-1.3,0.2-1.8,0.5
		c-0.6,0.3-1,0.8-1.3,1.3c-0.3,0.6-0.5,1.2-0.5,1.8c0,0.7,0.2,1.3,0.5,1.8c0.3,0.6,0.8,1,1.3,1.3c0.6,0.3,1.2,0.5,1.8,0.5
		C210.1,18.3,210.8,18.1,211.3,17.8z M211.5,14.9c-0.2,0.3-0.5,0.5-0.8,0.6l1.2,1.7h-1.3l-1.1-1.6h-0.8v1.6h-1.3V12h2.5
		c0.6,0,1.1,0.2,1.4,0.5c0.4,0.3,0.5,0.8,0.5,1.3C211.8,14.2,211.7,14.6,211.5,14.9z M208.7,14.4h1c0.2,0,0.4,0,0.5-0.1
		c0.1-0.1,0.2-0.2,0.2-0.4c0-0.2-0.1-0.3-0.2-0.4c-0.1-0.1-0.3-0.1-0.5-0.1h-1V14.4z"/>
</g>
<g>
	<g>
		<path class="st10" d="M109.7,52.5c0.8,0.5,1.4,1.2,1.8,2c0.4,0.9,0.7,1.8,0.7,2.9s-0.2,2.1-0.7,3c-0.4,0.9-1,1.6-1.8,2
			c-0.8,0.5-1.6,0.7-2.6,0.7c-0.9,0-1.6-0.2-2.3-0.6c-0.7-0.4-1.2-1-1.7-1.7v2h-1.6V48.2h1.6v5.9c0.4-0.7,1-1.3,1.7-1.7
			c0.7-0.4,1.5-0.6,2.3-0.6C108.1,51.8,108.9,52,109.7,52.5z M108.7,61.2c0.6-0.4,1-0.9,1.3-1.5c0.3-0.7,0.5-1.4,0.5-2.2
			c0-0.8-0.2-1.6-0.5-2.2s-0.7-1.2-1.3-1.5s-1.2-0.5-1.9-0.5s-1.3,0.2-1.9,0.5c-0.6,0.4-1,0.9-1.3,1.5s-0.5,1.4-0.5,2.2
			c0,0.8,0.2,1.6,0.5,2.2c0.3,0.7,0.7,1.2,1.3,1.5c0.6,0.4,1.2,0.5,1.9,0.5S108.1,61.6,108.7,61.2z"/>
		<path class="st10" d="M113.6,66.4L114,65c0.4,0.2,0.8,0.3,1.3,0.3c0.4,0,0.7-0.1,0.9-0.2s0.5-0.4,0.7-0.8l0.6-1.4L112.7,52h1.8
			l3.8,9.1l3.6-9.1h1.7l-5,12.1c-0.4,0.9-0.8,1.6-1.4,2c-0.5,0.4-1.2,0.6-2,0.6C114.7,66.7,114.1,66.6,113.6,66.4z"/>
		<path class="st10" d="M144.7,48.4l-6.4,14.5h-1.8l-6.4-14.5h1.8l5.5,12.5l5.5-12.5H144.7z"/>
		<path class="st10" d="M147.1,48.4h1.6l5.4,10.1l5.4-10.1h1.6v14.5h-1.6V52l-5.4,10.1L148.8,52v11h-1.6V48.4z"/>
		<path class="st10" d="M163.5,52h1.7l2.7,8.8l3-8.8h1.4l3,8.8l2.7-8.8h1.7l-3.7,10.9h-1.5l-2.9-8.7l-2.9,8.7h-1.5L163.5,52z"/>
		<path class="st10" d="M188.6,53c0.8,0.8,1.1,1.9,1.1,3.3v6.6h-1.6v-1.7c-0.4,0.6-0.9,1.1-1.6,1.4c-0.7,0.3-1.4,0.5-2.2,0.5
			c-1.2,0-2.1-0.3-2.9-0.9c-0.7-0.6-1.1-1.5-1.1-2.5c0-0.7,0.2-1.3,0.6-1.9s0.9-1,1.6-1.3c0.7-0.3,1.4-0.5,2.1-0.5
			c1.1,0,2.3,0.2,3.5,0.6v-0.4c0-0.9-0.2-1.6-0.7-2.2c-0.5-0.6-1.2-0.9-2.3-0.9c-0.5,0-1,0.1-1.5,0.3c-0.5,0.2-1.1,0.4-1.7,0.7
			l-0.6-1.3c1.4-0.7,2.7-1.1,3.9-1.1C186.8,51.8,187.9,52.2,188.6,53z M186.8,61.2c0.7-0.4,1.1-1,1.3-1.7v-1.7
			c-1.1-0.3-2.2-0.4-3.3-0.4c-0.8,0-1.5,0.2-2.1,0.6c-0.6,0.4-0.9,1-0.9,1.6c0,0.7,0.3,1.2,0.8,1.6c0.5,0.4,1.2,0.6,2,0.6
			C185.4,61.8,186.1,61.6,186.8,61.2z"/>
		<path class="st10" d="M196.1,52.4c0.7-0.4,1.6-0.6,2.6-0.6v1.4c-0.8,0-1.5,0.2-2.2,0.5c-0.6,0.3-1.1,0.7-1.5,1.3
			c-0.4,0.6-0.5,1.2-0.5,1.9v6.1h-1.6V52h1.6v2.1C194.8,53.4,195.3,52.8,196.1,52.4z"/>
		<path class="st10" d="M207,61.4c0.7-0.3,1.1-0.6,1.5-0.9l1,1c-0.5,0.5-1.1,0.9-2,1.2s-1.6,0.5-2.4,0.5c-1,0-1.9-0.2-2.7-0.7
			s-1.5-1.2-2-2.1c-0.5-0.9-0.8-1.9-0.8-2.9c0-1.1,0.2-2,0.7-2.9s1.1-1.6,2-2c0.8-0.5,1.7-0.7,2.7-0.7c1.6,0,2.9,0.6,3.8,1.7
			c0.9,1.1,1.4,2.7,1.4,4.6h-8.9c0.1,1.1,0.5,2,1.2,2.7c0.7,0.7,1.6,1,2.6,1C205.7,61.8,206.3,61.6,207,61.4z M202.4,54.1
			c-0.7,0.6-1.1,1.5-1.3,2.5h7.3c-0.1-1-0.5-1.9-1.1-2.5c-0.6-0.6-1.4-1-2.5-1C204,53.2,203.1,53.5,202.4,54.1z"/>
	</g>
</g>
<g>
	<polygon class="st2" points="54.8,22.7 36.4,13.8 18,22.7 13.5,42.6 26.2,58.5 46.6,58.5 59.4,42.6 	"/>
	<linearGradient id="SVGID_1_" gradientUnits="userSpaceOnUse" x1="55.5073" y1="64.4526" x2="17.366" y2="64.725">
		<stop  offset="0" style="stop-color:#0091DA"/>
		<stop  offset="1" style="stop-color:#1D428A"/>
	</linearGradient>
	<polygon class="st3" points="46.6,58.5 26.2,58.5 35.8,70.6 37,70.6 52.4,70.6 62.1,58.5 	"/>
	
		<linearGradient id="SVGID_00000129917081286446866610000000619644564429193108_" gradientUnits="userSpaceOnUse" x1="71.0426" y1="37.4937" x2="44.6162" y2="70.8673">
		<stop  offset="0" style="stop-color:#0091DA"/>
		<stop  offset="1" style="stop-color:#1D428A"/>
	</linearGradient>
	<polygon style="fill:url(#SVGID_00000129917081286446866610000000619644564429193108_);" points="69,30.5 59.4,42.6 46.6,58.5 
		62.1,58.5 62.8,57.6 72.4,45.5 	"/>
	
		<linearGradient id="SVGID_00000183941721984804495090000001671151539442415791_" gradientUnits="userSpaceOnUse" x1="67.1575" y1="47.9179" x2="58.712" y2="13.8631">
		<stop  offset="0" style="stop-color:#1D428A"/>
		<stop  offset="1" style="stop-color:#0091DA"/>
	</linearGradient>
	<polygon style="fill:url(#SVGID_00000183941721984804495090000001671151539442415791_);" points="68.6,28.9 65.3,14.3 51.4,7.6 
		54.7,22.2 54.8,22.7 59.4,42.6 69,30.5 	"/>
	
		<linearGradient id="SVGID_00000161624386889165024970000003212196307318245527_" gradientUnits="userSpaceOnUse" x1="28.6401" y1="70.0193" x2="2.7585" y2="40.3236">
		<stop  offset="0" style="stop-color:#0091DA"/>
		<stop  offset="1" style="stop-color:#1D428A"/>
	</linearGradient>
	<polygon style="fill:url(#SVGID_00000161624386889165024970000003212196307318245527_);" points="26.2,58.5 13.5,42.6 10,57.6 
		10.8,58.5 20.4,70.6 35.8,70.6 	"/>
	
		<linearGradient id="SVGID_00000115492878084077974540000001581404878308985786_" gradientUnits="userSpaceOnUse" x1="5.2066" y1="52.2431" x2="14.4695" y2="10.2876">
		<stop  offset="0" style="stop-color:#0091DA"/>
		<stop  offset="1" style="stop-color:#1D428A"/>
	</linearGradient>
	<polygon style="fill:url(#SVGID_00000115492878084077974540000001581404878308985786_);" points="4.1,29.3 3.8,30.5 0.4,45.5 
		10,57.6 13.5,42.6 18,22.7 	"/>
	
		<linearGradient id="SVGID_00000120550344364861780960000013835790344196112573_" gradientUnits="userSpaceOnUse" x1="5.1569" y1="22.5473" x2="43.7069" y2="3.068">
		<stop  offset="0" style="stop-color:#0091DA"/>
		<stop  offset="1" style="stop-color:#1D428A"/>
	</linearGradient>
	<polygon style="fill:url(#SVGID_00000120550344364861780960000013835790344196112573_);" points="22.5,7.1 21.4,7.6 7.5,14.3 
		4.1,29.3 18,22.7 36.4,13.8 	"/>
	
		<linearGradient id="SVGID_00000114794356853413026350000016511331360588992684_" gradientUnits="userSpaceOnUse" x1="31.4837" y1="4.619" x2="65.5384" y2="21.6464">
		<stop  offset="0" style="stop-color:#0091DA"/>
		<stop  offset="1" style="stop-color:#1D428A"/>
	</linearGradient>
	<polygon style="fill:url(#SVGID_00000114794356853413026350000016511331360588992684_);" points="51.4,7.6 50.3,7.1 36.4,0.4 
		22.5,7.1 36.4,13.8 54.8,22.7 	"/>
</g>
</svg>
