<?xml version="1.0" encoding="utf-8"?>
<!-- Generator: Adobe Illustrator 27.1.1, SVG Export Plug-In . SVG Version: 6.00 Build 0)  -->
<svg version="1.1" id="Layer_1" xmlns="http://www.w3.org/2000/svg" xmlns:xlink="http://www.w3.org/1999/xlink" x="0px" y="0px"
	 viewBox="0 0 405.1 71" style="enable-background:new 0 0 405.1 71;" xml:space="preserve">
<style type="text/css">
	.st0{fill:#727175;}
	.st1{fill:#0091DA;}
	.st2{fill:none;}
	.st3{fill:url(#SVGID_1_);}
	.st4{fill:url(#SVGID_00000054240178273204967450000016599111170030264449_);}
	.st5{fill:url(#SVGID_00000103258672884048405730000017476497836753300138_);}
	.st6{fill:url(#SVGID_00000043451438232013369130000016386828091092393663_);}
	.st7{fill:url(#SVGID_00000181069323045449384610000008648567936010664583_);}
	.st8{fill:url(#SVGID_00000145736610869876926230000014240894920403652283_);}
	.st9{fill:url(#SVGID_00000052076754543564540770000004568241001380391820_);}
	.st10{fill:#FFFFFF;}
	.st11{fill:url(#SVGID_00000094613603297155388110000007149202254117415841_);}
	.st12{fill:url(#SVGID_00000018213686509338164790000015984598829248627099_);}
	.st13{fill:url(#SVGID_00000080201827968698956720000010713652827995951035_);}
	.st14{fill:url(#SVGID_00000101792235045456960500000011167031314844598704_);}
	.st15{fill:url(#SVGID_00000049202356202361850210000017585780929764341154_);}
	.st16{fill:url(#SVGID_00000048463075600795451460000014974223664951185798_);}
	.st17{fill:url(#SVGID_00000129918251098088308220000009584906119232075417_);}
	.st18{fill:url(#SVGID_00000180344114535800636400000003448302244395076498_);}
	.st19{fill:url(#SVGID_00000107565543763440331030000005766211583801502093_);}
	.st20{fill:url(#SVGID_00000134936370675169468880000017583981559528374202_);}
	.st21{fill:url(#SVGID_00000048492025995492023560000000862666046083325347_);}
	.st22{fill:url(#SVGID_00000137830676025743879720000010295267571791774603_);}
	.st23{fill:url(#SVGID_00000049932403633783131370000014082325201761718691_);}
	.st24{fill:url(#SVGID_00000090991982236093588890000008846001438855023013_);}
	.st25{fill:url(#SVGID_00000041281305102622190780000007897774978762901415_);}
	.st26{fill:url(#SVGID_00000020372246281504984200000012179976820358041785_);}
	.st27{fill:url(#SVGID_00000026864119714503489870000007189173704220536997_);}
	.st28{fill:url(#SVGID_00000067920401530194482760000012451304307652560299_);}
	.st29{fill:url(#SVGID_00000135679152441114783590000010554539656409333141_);}
	.st30{fill:url(#SVGID_00000037658334146753097420000012669150238159240345_);}
	.st31{fill:url(#SVGID_00000168839720673742338080000005463596823917629343_);}
	.st32{fill:url(#SVGID_00000176002169797534444220000010035221868443947942_);}
	.st33{fill:url(#SVGID_00000133526290261763376570000010626168491314908582_);}
	.st34{fill:url(#SVGID_00000064331074227459633830000007213679677060047013_);}
	.st35{fill:url(#SVGID_00000135650107776891044680000002958199218088300938_);}
	.st36{fill:url(#SVGID_00000136370008617100936230000002774359510437650574_);}
	.st37{fill:url(#SVGID_00000083062418397871077360000004324627449132504477_);}
	.st38{fill:url(#SVGID_00000147937860900496425440000018371188997742525099_);}
	.st39{fill:url(#SVGID_00000126312362506109582750000011811386139165329850_);}
	.st40{fill:url(#SVGID_00000165923092758536609020000004753274154227842226_);}
	.st41{fill:url(#SVGID_00000173843241611956982190000011067498847236566408_);}
	.st42{fill:url(#SVGID_00000111166767742288149420000015268958550702581183_);}
	.st43{fill:url(#SVGID_00000109746785757604231280000005201928882034858624_);}
	.st44{fill:url(#SVGID_00000181781125899749167810000009887793686792527007_);}
	.st45{fill:url(#SVGID_00000073691521403030116010000007807949672369319822_);}
</style>
<g>
	<g>
		<g>
			<g>
				<path class="st0" d="M101.8,13h-9.9V9.8H115V13h-9.9v26.3h-3.3V13z"/>
				<path class="st0" d="M130.1,19.1c1.5,1.7,2.3,3.9,2.3,6.7v13.5h-3.2v-3.5c-0.8,1.3-1.9,2.2-3.3,2.9c-1.4,0.7-2.9,1-4.5,1
					c-2.4,0-4.3-0.6-5.8-1.9s-2.3-3-2.3-5.1c0-1.4,0.4-2.7,1.2-3.8c0.8-1.1,1.8-2,3.2-2.6c1.3-0.6,2.8-0.9,4.3-0.9
					c2.2,0,4.6,0.4,7.2,1.2v-0.8c0-1.8-0.5-3.3-1.4-4.6c-0.9-1.2-2.5-1.9-4.6-1.9c-1,0-2,0.2-3.1,0.5c-1,0.4-2.2,0.9-3.4,1.5
					l-1.3-2.6c2.9-1.4,5.5-2.1,8-2.1C126.4,16.6,128.6,17.4,130.1,19.1z M126.5,35.7c1.4-0.8,2.3-1.9,2.7-3.4v-3.4
					c-2.2-0.6-4.4-0.9-6.7-0.9c-1.7,0-3.1,0.4-4.3,1.3c-1.2,0.9-1.8,1.9-1.8,3.3c0,1.3,0.5,2.4,1.6,3.2c1,0.8,2.4,1.2,4,1.2
					C123.6,36.9,125.1,36.5,126.5,35.7z"/>
				<path class="st0" d="M153.3,17.7c1.3,0.7,2.2,1.7,2.9,3c0.7,1.3,1,2.8,1,4.5v14.1H154V25.6c0-1.8-0.5-3.3-1.5-4.4
					c-1-1.1-2.4-1.7-4-1.7c-1.2,0-2.4,0.3-3.4,0.8s-1.9,1.2-2.5,2.1c-0.6,0.9-0.9,1.8-0.9,2.8v14.1h-3.2V17.1h3.2v3.5
					c0.7-1.2,1.6-2.2,3-2.9c1.3-0.7,2.8-1.1,4.3-1.1C150.6,16.6,152,16.9,153.3,17.7z"/>
				<path class="st0" d="M160.8,36.7l13.1-16.6h-12.8v-3h17.1v2.5l-13.1,16.6h13.2v3h-17.5V36.7z"/>
				<path class="st0" d="M200.6,17.1v22.1h-3.2v-3.5c-0.7,1.2-1.6,2.2-3,2.9c-1.3,0.7-2.8,1.1-4.3,1.1c-1.6,0-3.1-0.4-4.3-1.1
					c-1.3-0.7-2.2-1.7-2.9-3c-0.7-1.3-1-2.8-1-4.5V17.1h3.2v13.7c0,1.8,0.5,3.3,1.5,4.4c1,1.1,2.4,1.7,4,1.7c1.2,0,2.4-0.3,3.4-0.8
					c1.1-0.5,1.9-1.2,2.5-2.1c0.6-0.9,0.9-1.8,0.9-2.8V17.1H200.6z"/>
				<path class="st0" d="M242.6,32.6h-16.4l-3,6.7h-3.6l13-29.4h3.6l13,29.4h-3.6L242.6,32.6z M241.2,29.4l-6.8-15.5l-6.9,15.5
					H241.2z"/>
				<path class="st0" d="M256.5,38.2c-1.8-1.1-3.2-2.5-4.2-4.3c-1-1.8-1.6-3.7-1.6-5.8c0-2.1,0.5-4,1.6-5.7c1-1.8,2.4-3.2,4.2-4.2
					c1.8-1.1,3.7-1.6,5.7-1.6c1.5,0,2.9,0.3,4.3,0.9c1.4,0.6,2.6,1.4,3.6,2.4l-2.2,2.2c-0.7-0.8-1.6-1.4-2.6-1.9
					c-1-0.5-2-0.7-3.1-0.7c-1.5,0-2.8,0.4-4,1.2c-1.2,0.8-2.2,1.8-3,3.2c-0.7,1.3-1.1,2.8-1.1,4.3c0,1.6,0.4,3,1.1,4.3
					c0.7,1.3,1.7,2.4,3,3.2c1.2,0.8,2.6,1.2,4,1.2c1.1,0,2.1-0.2,3.1-0.7c1-0.5,1.9-1.1,2.7-2l2.2,2.2c-1.1,1.1-2.3,1.9-3.7,2.5
					c-1.4,0.6-2.8,0.9-4.3,0.9C260.1,39.8,258.2,39.2,256.5,38.2z"/>
				<path class="st0" d="M289.2,19.1c1.5,1.7,2.3,3.9,2.3,6.7v13.5h-3.2v-3.5c-0.8,1.3-1.9,2.2-3.3,2.9c-1.4,0.7-2.9,1-4.5,1
					c-2.4,0-4.3-0.6-5.8-1.9s-2.3-3-2.3-5.1c0-1.4,0.4-2.7,1.2-3.8c0.8-1.1,1.8-2,3.2-2.6c1.3-0.6,2.8-0.9,4.3-0.9
					c2.2,0,4.6,0.4,7.2,1.2v-0.8c0-1.8-0.5-3.3-1.4-4.6c-0.9-1.2-2.5-1.9-4.6-1.9c-1,0-2,0.2-3.1,0.5c-1,0.4-2.2,0.9-3.4,1.5
					l-1.3-2.6c2.9-1.4,5.5-2.1,8-2.1C285.5,16.6,287.7,17.4,289.2,19.1z M285.6,35.7c1.4-0.8,2.3-1.9,2.7-3.4v-3.4
					c-2.2-0.6-4.4-0.9-6.7-0.9c-1.7,0-3.1,0.4-4.3,1.3c-1.2,0.9-1.8,1.9-1.8,3.3c0,1.3,0.5,2.4,1.6,3.2c1,0.8,2.4,1.2,4,1.2
					C282.7,36.9,284.2,36.5,285.6,35.7z"/>
				<path class="st0" d="M317.5,9.3v29.9h-3.2v-4.2c-0.9,1.5-2,2.6-3.4,3.4c-1.4,0.8-2.9,1.2-4.7,1.2c-1.9,0-3.6-0.5-5.2-1.5
					s-2.8-2.4-3.7-4.1c-0.9-1.8-1.3-3.8-1.3-6c0-2.2,0.4-4.2,1.3-6c0.9-1.8,2.1-3.1,3.7-4.1s3.3-1.5,5.2-1.5c1.7,0,3.3,0.4,4.7,1.2
					c1.4,0.8,2.5,2,3.4,3.4v-12H317.5z M310.7,35.8c1.1-0.7,2-1.8,2.7-3.1c0.6-1.3,0.9-2.8,0.9-4.5c0-1.7-0.3-3.2-0.9-4.5
					c-0.6-1.3-1.5-2.3-2.7-3.1c-1.1-0.7-2.4-1.1-3.9-1.1c-1.4,0-2.7,0.4-3.8,1.1c-1.1,0.7-2,1.8-2.6,3.1c-0.6,1.3-0.9,2.8-0.9,4.5
					c0,1.7,0.3,3.2,0.9,4.5c0.6,1.3,1.5,2.4,2.6,3.1c1.1,0.7,2.4,1.1,3.8,1.1C308.3,36.9,309.6,36.5,310.7,35.8z"/>
				<path class="st0" d="M337.5,36.1c1.3-0.5,2.3-1.1,3-1.9l2,2.1c-0.9,1-2.3,1.9-4,2.5s-3.3,0.9-4.9,0.9c-2,0-3.8-0.5-5.5-1.5
					c-1.7-1-3.1-2.4-4.1-4.2c-1-1.8-1.6-3.8-1.6-6c0-2.1,0.5-4.1,1.5-5.9c1-1.8,2.3-3.2,4-4.2c1.7-1,3.5-1.5,5.5-1.5
					c3.3,0,5.9,1.2,7.7,3.5c1.8,2.3,2.8,5.4,2.8,9.3h-18.1c0.2,2.2,1.1,4,2.5,5.4c1.4,1.4,3.2,2.1,5.4,2.1
					C334.9,36.9,336.2,36.6,337.5,36.1z M328.3,21.4c-1.4,1.3-2.3,3-2.6,5.1h14.9c-0.2-2.1-1-3.8-2.2-5.1c-1.2-1.3-2.9-1.9-5-1.9
					C331.4,19.5,329.7,20.1,328.3,21.4z"/>
				<path class="st0" d="M376.4,17.7c1.2,0.7,2.1,1.7,2.8,3c0.7,1.3,1,2.8,1,4.4v14.1H377V25.6c0-1.8-0.5-3.3-1.4-4.4
					c-1-1.1-2.2-1.7-3.7-1.7c-1.8,0-3.2,0.5-4.3,1.6c-1.1,1.1-1.7,2.4-1.7,4.1v14.1h-3.2V25.6c0-1.8-0.5-3.3-1.4-4.4
					c-1-1.1-2.2-1.7-3.7-1.7c-1.8,0-3.2,0.5-4.3,1.6c-1.1,1.1-1.7,2.4-1.7,4.1v14.1h-3.2V17.1h3.2v3.3c0.6-1.2,1.4-2.1,2.5-2.8
					c1.1-0.7,2.4-1,3.9-1c1.7,0,3.3,0.5,4.6,1.4c1.3,0.9,2.2,2.2,2.8,3.9c0.3-1.6,1.1-2.8,2.4-3.8c1.3-1,2.8-1.5,4.5-1.5
					C373.8,16.6,375.2,16.9,376.4,17.7z"/>
				<path class="st0" d="M384,46.2l0.8-2.7c0.7,0.4,1.6,0.6,2.6,0.6c0.7,0,1.4-0.1,1.8-0.4c0.5-0.3,0.9-0.8,1.4-1.5l1.3-2.7
					l-9.6-22.2h3.6l7.8,18.4l7.3-18.4h3.5l-10.1,24.6c-0.7,1.8-1.7,3.1-2.7,4s-2.4,1.2-4,1.3C386.2,47,385.1,46.7,384,46.2z"/>
			</g>
		</g>
		<path class="st0" d="M211.9,10.9c0.7,0.4,1.2,0.9,1.6,1.6c0.4,0.7,0.6,1.4,0.6,2.1s-0.2,1.5-0.6,2.1c-0.4,0.7-0.9,1.2-1.6,1.6
			c-0.7,0.4-1.4,0.6-2.1,0.6c-0.8,0-1.5-0.2-2.1-0.6c-0.7-0.4-1.2-0.9-1.6-1.6c-0.4-0.7-0.6-1.4-0.6-2.1s0.2-1.5,0.6-2.1
			c0.4-0.7,0.9-1.2,1.6-1.6c0.7-0.4,1.4-0.6,2.1-0.6C210.6,10.3,211.3,10.5,211.9,10.9z M211.6,17.8c0.6-0.3,1-0.8,1.3-1.3
			c0.3-0.6,0.5-1.2,0.5-1.8c0-0.7-0.2-1.3-0.5-1.8c-0.3-0.6-0.8-1-1.3-1.3c-0.6-0.3-1.2-0.5-1.8-0.5c-0.7,0-1.3,0.2-1.8,0.5
			c-0.6,0.3-1,0.8-1.3,1.3c-0.3,0.6-0.5,1.2-0.5,1.8c0,0.7,0.2,1.3,0.5,1.8c0.3,0.6,0.8,1,1.3,1.3c0.6,0.3,1.2,0.5,1.8,0.5
			C210.4,18.3,211.1,18.1,211.6,17.8z M211.8,14.9c-0.2,0.3-0.5,0.5-0.8,0.6l1.2,1.7h-1.3l-1.1-1.6H209v1.6h-1.3V12h2.5
			c0.6,0,1.1,0.2,1.4,0.5c0.4,0.3,0.5,0.8,0.5,1.3C212.1,14.2,212,14.6,211.8,14.9z M209,14.4h1c0.2,0,0.4,0,0.5-0.1
			c0.1-0.1,0.2-0.2,0.2-0.4c0-0.2-0.1-0.3-0.2-0.4c-0.1-0.1-0.3-0.1-0.5-0.1h-1V14.4z"/>
	</g>
	<g>
		<g>
			<path class="st0" d="M110,52.5c0.8,0.5,1.4,1.2,1.8,2c0.4,0.9,0.7,1.8,0.7,2.9s-0.2,2.1-0.7,3c-0.4,0.9-1,1.6-1.8,2
				c-0.8,0.5-1.6,0.7-2.6,0.7c-0.9,0-1.6-0.2-2.3-0.6c-0.7-0.4-1.2-1-1.7-1.7v2h-1.6V48.2h1.6v5.9c0.4-0.7,1-1.3,1.7-1.7
				c0.7-0.4,1.5-0.6,2.3-0.6C108.4,51.8,109.2,52,110,52.5z M109,61.2c0.6-0.4,1-0.9,1.3-1.5c0.3-0.7,0.5-1.4,0.5-2.2
				c0-0.8-0.2-1.6-0.5-2.2s-0.7-1.2-1.3-1.5s-1.2-0.5-1.9-0.5s-1.3,0.2-1.9,0.5c-0.6,0.4-1,0.9-1.3,1.5s-0.5,1.4-0.5,2.2
				c0,0.8,0.2,1.6,0.5,2.2c0.3,0.7,0.7,1.2,1.3,1.5c0.6,0.4,1.2,0.5,1.9,0.5S108.5,61.6,109,61.2z"/>
			<path class="st0" d="M113.9,66.4l0.4-1.4c0.4,0.2,0.8,0.3,1.3,0.3c0.4,0,0.7-0.1,0.9-0.2s0.5-0.4,0.7-0.8l0.6-1.4L113,52h1.8
				l3.8,9.1l3.6-9.1h1.7l-5,12.1c-0.4,0.9-0.8,1.6-1.4,2c-0.5,0.4-1.2,0.6-2,0.6C115,66.7,114.4,66.6,113.9,66.4z"/>
			<path class="st0" d="M145,48.4l-6.4,14.5h-1.8l-6.4-14.5h1.8l5.5,12.5l5.5-12.5H145z"/>
			<path class="st0" d="M147.4,48.4h1.6l5.4,10.1l5.4-10.1h1.6v14.5h-1.6V52l-5.4,10.1L149.1,52v11h-1.6V48.4z"/>
			<path class="st0" d="M163.8,52h1.7l2.7,8.8l3-8.8h1.4l3,8.8l2.7-8.8h1.7l-3.7,10.9h-1.5l-2.9-8.7l-2.9,8.7h-1.5L163.8,52z"/>
			<path class="st0" d="M188.9,53c0.8,0.8,1.1,1.9,1.1,3.3v6.6h-1.6v-1.7c-0.4,0.6-0.9,1.1-1.6,1.4c-0.7,0.3-1.4,0.5-2.2,0.5
				c-1.2,0-2.1-0.3-2.9-0.9c-0.7-0.6-1.1-1.5-1.1-2.5c0-0.7,0.2-1.3,0.6-1.9s0.9-1,1.6-1.3c0.7-0.3,1.4-0.5,2.1-0.5
				c1.1,0,2.3,0.2,3.5,0.6v-0.4c0-0.9-0.2-1.6-0.7-2.2c-0.5-0.6-1.2-0.9-2.3-0.9c-0.5,0-1,0.1-1.5,0.3c-0.5,0.2-1.1,0.4-1.7,0.7
				l-0.6-1.3c1.4-0.7,2.7-1.1,3.9-1.1C187.1,51.8,188.2,52.2,188.9,53z M187.1,61.2c0.7-0.4,1.1-1,1.3-1.7v-1.7
				c-1.1-0.3-2.2-0.4-3.3-0.4c-0.8,0-1.5,0.2-2.1,0.6c-0.6,0.4-0.9,1-0.9,1.6c0,0.7,0.3,1.2,0.8,1.6c0.5,0.4,1.2,0.6,2,0.6
				C185.7,61.8,186.4,61.6,187.1,61.2z"/>
			<path class="st0" d="M196.4,52.4c0.7-0.4,1.6-0.6,2.6-0.6v1.4c-0.8,0-1.5,0.2-2.2,0.5c-0.6,0.3-1.1,0.7-1.5,1.3
				c-0.4,0.6-0.5,1.2-0.5,1.9v6.1h-1.6V52h1.6v2.1C195.1,53.4,195.6,52.8,196.4,52.4z"/>
			<path class="st0" d="M207.3,61.4c0.7-0.3,1.1-0.6,1.5-0.9l1,1c-0.5,0.5-1.1,0.9-2,1.2s-1.6,0.5-2.4,0.5c-1,0-1.9-0.2-2.7-0.7
				s-1.5-1.2-2-2.1c-0.5-0.9-0.8-1.9-0.8-2.9c0-1.1,0.2-2,0.7-2.9s1.1-1.6,2-2c0.8-0.5,1.7-0.7,2.7-0.7c1.6,0,2.9,0.6,3.8,1.7
				c0.9,1.1,1.4,2.7,1.4,4.6h-8.9c0.1,1.1,0.5,2,1.2,2.7c0.7,0.7,1.6,1,2.6,1C206,61.8,206.6,61.6,207.3,61.4z M202.7,54.1
				c-0.7,0.6-1.1,1.5-1.3,2.5h7.3c-0.1-1-0.5-1.9-1.1-2.5c-0.6-0.6-1.4-1-2.5-1C204.3,53.2,203.4,53.5,202.7,54.1z"/>
		</g>
	</g>
	<g>
		<polygon class="st2" points="55.1,22.7 36.7,13.8 18.3,22.7 13.8,42.6 26.5,58.5 46.9,58.5 59.7,42.6 		"/>
		<linearGradient id="SVGID_1_" gradientUnits="userSpaceOnUse" x1="55.8103" y1="64.4526" x2="17.669" y2="64.725">
			<stop  offset="0" style="stop-color:#0091DA"/>
			<stop  offset="1" style="stop-color:#1D428A"/>
		</linearGradient>
		<polygon class="st3" points="46.9,58.5 26.5,58.5 36.1,70.6 37.3,70.6 52.7,70.6 62.4,58.5 		"/>
		
			<linearGradient id="SVGID_00000044158581264304321840000014283988448641474712_" gradientUnits="userSpaceOnUse" x1="71.3457" y1="37.4937" x2="44.9192" y2="70.8673">
			<stop  offset="0" style="stop-color:#0091DA"/>
			<stop  offset="1" style="stop-color:#1D428A"/>
		</linearGradient>
		<polygon style="fill:url(#SVGID_00000044158581264304321840000014283988448641474712_);" points="69.3,30.5 59.7,42.6 46.9,58.5 
			62.4,58.5 63.1,57.6 72.7,45.5 		"/>
		
			<linearGradient id="SVGID_00000032633351292406706190000001914408314210828466_" gradientUnits="userSpaceOnUse" x1="67.4606" y1="47.9179" x2="59.015" y2="13.8631">
			<stop  offset="0" style="stop-color:#1D428A"/>
			<stop  offset="1" style="stop-color:#0091DA"/>
		</linearGradient>
		<polygon style="fill:url(#SVGID_00000032633351292406706190000001914408314210828466_);" points="68.9,28.9 65.6,14.3 51.7,7.6 
			55,22.2 55.1,22.7 59.7,42.6 69.3,30.5 		"/>
		
			<linearGradient id="SVGID_00000047018065003336492100000005951370811213494717_" gradientUnits="userSpaceOnUse" x1="28.9431" y1="70.0193" x2="3.0615" y2="40.3236">
			<stop  offset="0" style="stop-color:#0091DA"/>
			<stop  offset="1" style="stop-color:#1D428A"/>
		</linearGradient>
		<polygon style="fill:url(#SVGID_00000047018065003336492100000005951370811213494717_);" points="26.5,58.5 13.8,42.6 10.3,57.6 
			11.1,58.5 20.7,70.6 36.1,70.6 		"/>
		
			<linearGradient id="SVGID_00000124122443860026220250000006665580011352374181_" gradientUnits="userSpaceOnUse" x1="5.5096" y1="52.2431" x2="14.7725" y2="10.2876">
			<stop  offset="0" style="stop-color:#0091DA"/>
			<stop  offset="1" style="stop-color:#1D428A"/>
		</linearGradient>
		<polygon style="fill:url(#SVGID_00000124122443860026220250000006665580011352374181_);" points="4.4,29.3 4.1,30.5 0.7,45.5 
			10.3,57.6 13.8,42.6 18.3,22.7 		"/>
		
			<linearGradient id="SVGID_00000053524853530075315490000002049396645787040435_" gradientUnits="userSpaceOnUse" x1="5.4599" y1="22.5473" x2="44.0099" y2="3.068">
			<stop  offset="0" style="stop-color:#0091DA"/>
			<stop  offset="1" style="stop-color:#1D428A"/>
		</linearGradient>
		<polygon style="fill:url(#SVGID_00000053524853530075315490000002049396645787040435_);" points="22.8,7.1 21.7,7.6 7.8,14.3 
			4.4,29.3 18.3,22.7 36.7,13.8 		"/>
		
			<linearGradient id="SVGID_00000048503141678017127760000000907559184175955610_" gradientUnits="userSpaceOnUse" x1="31.7867" y1="4.619" x2="65.8414" y2="21.6464">
			<stop  offset="0" style="stop-color:#0091DA"/>
			<stop  offset="1" style="stop-color:#1D428A"/>
		</linearGradient>
		<polygon style="fill:url(#SVGID_00000048503141678017127760000000907559184175955610_);" points="51.7,7.6 50.6,7.1 36.7,0.4 
			22.8,7.1 36.7,13.8 55.1,22.7 		"/>
	</g>
</g>
</svg>
