<?xml version="1.0" encoding="utf-8"?>
<!-- Generator: Adobe Illustrator 27.1.1, SVG Export Plug-In . SVG Version: 6.00 Build 0)  -->
<svg version="1.1" id="Layer_1" xmlns="http://www.w3.org/2000/svg" xmlns:xlink="http://www.w3.org/1999/xlink" x="0px" y="0px"
	 viewBox="0 0 405.1 71" style="enable-background:new 0 0 405.1 71;" xml:space="preserve">
<style type="text/css">
	.st0{fill:#727175;}
	.st1{fill:#0091DA;}
	.st2{fill:none;}
	.st3{fill:url(#SVGID_1_);}
	.st4{fill:url(#SVGID_00000029027585781712393090000002934828767181690773_);}
	.st5{fill:url(#SVGID_00000163057867857683725150000000983241556599470990_);}
	.st6{fill:url(#SVGID_00000070082650006991307810000009022920264542218655_);}
	.st7{fill:url(#SVGID_00000075858840424109434230000017990143683774448001_);}
	.st8{fill:url(#SVGID_00000142173677667273991200000003100412898857301426_);}
	.st9{fill:url(#SVGID_00000183208035180830186850000015393968230510277804_);}
	.st10{fill:#FFFFFF;}
	.st11{fill:url(#SVGID_00000076563946828362894110000006851199820785188237_);}
	.st12{fill:url(#SVGID_00000145741163425219185820000006439734099537244802_);}
	.st13{fill:url(#SVGID_00000026138442386794785560000015135838158388298668_);}
	.st14{fill:url(#SVGID_00000118355483340472653390000011385973093240110480_);}
	.st15{fill:url(#SVGID_00000022521394867779182770000000624839711494833803_);}
	.st16{fill:url(#SVGID_00000173160431901566000990000015763885672320993676_);}
	.st17{fill:url(#SVGID_00000009567021220896777460000011280516281570400645_);}
	.st18{fill:url(#SVGID_00000170244332248147979970000007266357352023130043_);}
	.st19{fill:url(#SVGID_00000065066585593694286300000003014801556933203872_);}
	.st20{fill:url(#SVGID_00000128443891861150655850000012531598406932892846_);}
	.st21{fill:url(#SVGID_00000001644872677175750170000016730287340942760078_);}
	.st22{fill:url(#SVGID_00000036955210734411423110000017161842647873227701_);}
	.st23{fill:url(#SVGID_00000172410061539957507650000009899697791577694130_);}
	.st24{fill:url(#SVGID_00000005967011010134230100000017345648457276795062_);}
	.st25{fill:url(#SVGID_00000013885687799808415860000005083735540886442940_);}
	.st26{fill:url(#SVGID_00000142861450303115317030000016717976921821712768_);}
	.st27{fill:url(#SVGID_00000002376899880342919320000016147819008877892022_);}
	.st28{fill:url(#SVGID_00000029734277994465818010000009325023180589413289_);}
	.st29{fill:url(#SVGID_00000165234880007874722740000007225893753114129816_);}
	.st30{fill:url(#SVGID_00000163033450206103734170000010464986925230606485_);}
	.st31{fill:url(#SVGID_00000104687499998475280630000012967726135534435998_);}
	.st32{fill:url(#SVGID_00000166670088217712501720000005029586511521424286_);}
	.st33{fill:url(#SVGID_00000106842964183667393620000016364025635351701664_);}
	.st34{fill:url(#SVGID_00000020396043651472121680000001723414794359237307_);}
	.st35{fill:url(#SVGID_00000167391562584105412780000014447524694714949250_);}
	.st36{fill:url(#SVGID_00000145029304370406130730000007160760381800965521_);}
	.st37{fill:url(#SVGID_00000005965020811269469510000002074964513015618452_);}
	.st38{fill:url(#SVGID_00000095339319979030740730000005532070797479782534_);}
	.st39{fill:url(#SVGID_00000142160216573516922040000014107737335044100284_);}
	.st40{fill:url(#SVGID_00000158731908735138928040000001959597486596163746_);}
	.st41{fill:url(#SVGID_00000039117799779896865960000001331593083631877025_);}
	.st42{fill:url(#SVGID_00000034793409791428243060000014254391122383475122_);}
	.st43{fill:url(#SVGID_00000108309741742544177400000013635444404956264078_);}
	.st44{fill:url(#SVGID_00000183236475065877287160000010904937540543721346_);}
	.st45{fill:url(#SVGID_00000005973951347211512430000004355990329442414269_);}
</style>
<g>
	<g>
		<g>
			<path class="st10" d="M101.5,13h-9.9V9.8h23.1V13h-9.9v26.3h-3.3V13z"/>
			<path class="st10" d="M129.8,19.1c1.5,1.7,2.3,3.9,2.3,6.7v13.5h-3.2v-3.5c-0.8,1.3-1.9,2.2-3.3,2.9c-1.4,0.7-2.9,1-4.5,1
				c-2.4,0-4.3-0.6-5.8-1.9s-2.3-3-2.3-5.1c0-1.4,0.4-2.7,1.2-3.8c0.8-1.1,1.8-2,3.2-2.6c1.3-0.6,2.8-0.9,4.3-0.9
				c2.2,0,4.6,0.4,7.2,1.2v-0.8c0-1.8-0.5-3.3-1.4-4.6c-0.9-1.2-2.5-1.9-4.6-1.9c-1,0-2,0.2-3.1,0.5c-1,0.4-2.2,0.9-3.4,1.5
				l-1.3-2.6c2.9-1.4,5.5-2.1,8-2.1C126.1,16.6,128.3,17.4,129.8,19.1z M126.2,35.7c1.4-0.8,2.3-1.9,2.7-3.4v-3.4
				c-2.2-0.6-4.4-0.9-6.7-0.9c-1.7,0-3.1,0.4-4.3,1.3c-1.2,0.9-1.8,1.9-1.8,3.3c0,1.3,0.5,2.4,1.6,3.2c1,0.8,2.4,1.2,4,1.2
				C123.3,36.9,124.8,36.5,126.2,35.7z"/>
			<path class="st10" d="M153,17.7c1.3,0.7,2.2,1.7,2.9,3c0.7,1.3,1,2.8,1,4.5v14.1h-3.2V25.6c0-1.8-0.5-3.3-1.5-4.4
				c-1-1.1-2.4-1.7-4-1.7c-1.2,0-2.4,0.3-3.4,0.8s-1.9,1.2-2.5,2.1c-0.6,0.9-0.9,1.8-0.9,2.8v14.1h-3.2V17.1h3.2v3.5
				c0.7-1.2,1.6-2.2,3-2.9c1.3-0.7,2.8-1.1,4.3-1.1C150.3,16.6,151.7,16.9,153,17.7z"/>
			<path class="st10" d="M160.5,36.7l13.1-16.6h-12.8v-3h17.1v2.5l-13.1,16.6H178v3h-17.5V36.7z"/>
			<path class="st10" d="M200.3,17.1v22.1h-3.2v-3.5c-0.7,1.2-1.6,2.2-3,2.9c-1.3,0.7-2.8,1.1-4.3,1.1c-1.6,0-3.1-0.4-4.3-1.1
				c-1.3-0.7-2.2-1.7-2.9-3c-0.7-1.3-1-2.8-1-4.5V17.1h3.2v13.7c0,1.8,0.5,3.3,1.5,4.4c1,1.1,2.4,1.7,4,1.7c1.2,0,2.4-0.3,3.4-0.8
				c1.1-0.5,1.9-1.2,2.5-2.1c0.6-0.9,0.9-1.8,0.9-2.8V17.1H200.3z"/>
			<path class="st10" d="M242.3,32.6h-16.4l-3,6.7h-3.6l13-29.4h3.6l13,29.4h-3.6L242.3,32.6z M240.9,29.4l-6.8-15.5l-6.9,15.5
				H240.9z"/>
			<path class="st10" d="M256.2,38.2c-1.8-1.1-3.2-2.5-4.2-4.3c-1-1.8-1.6-3.7-1.6-5.8c0-2.1,0.5-4,1.6-5.7c1-1.8,2.4-3.2,4.2-4.2
				c1.8-1.1,3.7-1.6,5.7-1.6c1.5,0,2.9,0.3,4.3,0.9c1.4,0.6,2.6,1.4,3.6,2.4l-2.2,2.2c-0.7-0.8-1.6-1.4-2.6-1.9
				c-1-0.5-2-0.7-3.1-0.7c-1.5,0-2.8,0.4-4,1.2c-1.2,0.8-2.2,1.8-3,3.2c-0.7,1.3-1.1,2.8-1.1,4.3c0,1.6,0.4,3,1.1,4.3
				c0.7,1.3,1.7,2.4,3,3.2c1.2,0.8,2.6,1.2,4,1.2c1.1,0,2.1-0.2,3.1-0.7c1-0.5,1.9-1.1,2.7-2l2.2,2.2c-1.1,1.1-2.3,1.9-3.7,2.5
				c-1.4,0.6-2.8,0.9-4.3,0.9C259.8,39.8,257.9,39.2,256.2,38.2z"/>
			<path class="st10" d="M288.9,19.1c1.5,1.7,2.3,3.9,2.3,6.7v13.5H288v-3.5c-0.8,1.3-1.9,2.2-3.3,2.9c-1.4,0.7-2.9,1-4.5,1
				c-2.4,0-4.3-0.6-5.8-1.9s-2.3-3-2.3-5.1c0-1.4,0.4-2.7,1.2-3.8c0.8-1.1,1.8-2,3.2-2.6c1.3-0.6,2.8-0.9,4.3-0.9
				c2.2,0,4.6,0.4,7.2,1.2v-0.8c0-1.8-0.5-3.3-1.4-4.6c-0.9-1.2-2.5-1.9-4.6-1.9c-1,0-2,0.2-3.1,0.5c-1,0.4-2.2,0.9-3.4,1.5
				l-1.3-2.6c2.9-1.4,5.5-2.1,8-2.1C285.2,16.6,287.4,17.4,288.9,19.1z M285.3,35.7c1.4-0.8,2.3-1.9,2.7-3.4v-3.4
				c-2.2-0.6-4.4-0.9-6.7-0.9c-1.7,0-3.1,0.4-4.3,1.3c-1.2,0.9-1.8,1.9-1.8,3.3c0,1.3,0.5,2.4,1.6,3.2c1,0.8,2.4,1.2,4,1.2
				C282.4,36.9,283.9,36.5,285.3,35.7z"/>
			<path class="st10" d="M317.2,9.3v29.9H314v-4.2c-0.9,1.5-2,2.6-3.4,3.4c-1.4,0.8-2.9,1.2-4.7,1.2c-1.9,0-3.6-0.5-5.2-1.5
				s-2.8-2.4-3.7-4.1c-0.9-1.8-1.3-3.8-1.3-6c0-2.2,0.4-4.2,1.3-6c0.9-1.8,2.1-3.1,3.7-4.1s3.3-1.5,5.2-1.5c1.7,0,3.3,0.4,4.7,1.2
				c1.4,0.8,2.5,2,3.4,3.4v-12H317.2z M310.4,35.8c1.1-0.7,2-1.8,2.7-3.1c0.6-1.3,0.9-2.8,0.9-4.5c0-1.7-0.3-3.2-0.9-4.5
				c-0.6-1.3-1.5-2.3-2.7-3.1c-1.1-0.7-2.4-1.1-3.9-1.1c-1.4,0-2.7,0.4-3.8,1.1c-1.1,0.7-2,1.8-2.6,3.1c-0.6,1.3-0.9,2.8-0.9,4.5
				c0,1.7,0.3,3.2,0.9,4.5c0.6,1.3,1.5,2.4,2.6,3.1c1.1,0.7,2.4,1.1,3.8,1.1C308,36.9,309.3,36.5,310.4,35.8z"/>
			<path class="st10" d="M337.2,36.1c1.3-0.5,2.3-1.1,3-1.9l2,2.1c-0.9,1-2.3,1.9-4,2.5s-3.3,0.9-4.9,0.9c-2,0-3.8-0.5-5.5-1.5
				c-1.7-1-3.1-2.4-4.1-4.2c-1-1.8-1.6-3.8-1.6-6c0-2.1,0.5-4.1,1.5-5.9c1-1.8,2.3-3.2,4-4.2c1.7-1,3.5-1.5,5.5-1.5
				c3.3,0,5.9,1.2,7.7,3.5c1.8,2.3,2.8,5.4,2.8,9.3h-18.1c0.2,2.2,1.1,4,2.5,5.4c1.4,1.4,3.2,2.1,5.4,2.1
				C334.6,36.9,335.9,36.6,337.2,36.1z M328,21.4c-1.4,1.3-2.3,3-2.6,5.1h14.9c-0.2-2.1-1-3.8-2.2-5.1c-1.2-1.3-2.9-1.9-5-1.9
				C331.1,19.5,329.4,20.1,328,21.4z"/>
			<path class="st10" d="M376.1,17.7c1.2,0.7,2.1,1.7,2.8,3c0.7,1.3,1,2.8,1,4.4v14.1h-3.2V25.6c0-1.8-0.5-3.3-1.4-4.4
				c-1-1.1-2.2-1.7-3.7-1.7c-1.8,0-3.2,0.5-4.3,1.6c-1.1,1.1-1.7,2.4-1.7,4.1v14.1h-3.2V25.6c0-1.8-0.5-3.3-1.4-4.4
				c-1-1.1-2.2-1.7-3.7-1.7c-1.8,0-3.2,0.5-4.3,1.6c-1.1,1.1-1.7,2.4-1.7,4.1v14.1h-3.2V17.1h3.2v3.3c0.6-1.2,1.4-2.1,2.5-2.8
				c1.1-0.7,2.4-1,3.9-1c1.7,0,3.3,0.5,4.6,1.4c1.3,0.9,2.2,2.2,2.8,3.9c0.3-1.6,1.1-2.8,2.4-3.8c1.3-1,2.8-1.5,4.5-1.5
				C373.5,16.6,374.9,16.9,376.1,17.7z"/>
			<path class="st10" d="M383.7,46.2l0.8-2.7c0.7,0.4,1.6,0.6,2.6,0.6c0.7,0,1.4-0.1,1.8-0.4c0.5-0.3,0.9-0.8,1.4-1.5l1.3-2.7
				L382,17.1h3.6l7.8,18.4l7.3-18.4h3.5L394,41.7c-0.7,1.8-1.7,3.1-2.7,4s-2.4,1.2-4,1.3C386,47,384.8,46.7,383.7,46.2z"/>
		</g>
	</g>
	<path class="st10" d="M211.6,10.9c0.7,0.4,1.2,0.9,1.6,1.6c0.4,0.7,0.6,1.4,0.6,2.1s-0.2,1.5-0.6,2.1c-0.4,0.7-0.9,1.2-1.6,1.6
		c-0.7,0.4-1.4,0.6-2.1,0.6c-0.8,0-1.5-0.2-2.1-0.6c-0.7-0.4-1.2-0.9-1.6-1.6c-0.4-0.7-0.6-1.4-0.6-2.1s0.2-1.5,0.6-2.1
		c0.4-0.7,0.9-1.2,1.6-1.6c0.7-0.4,1.4-0.6,2.1-0.6C210.3,10.3,211,10.5,211.6,10.9z M211.3,17.8c0.6-0.3,1-0.8,1.3-1.3
		c0.3-0.6,0.5-1.2,0.5-1.8c0-0.7-0.2-1.3-0.5-1.8c-0.3-0.6-0.8-1-1.3-1.3c-0.6-0.3-1.2-0.5-1.8-0.5c-0.7,0-1.3,0.2-1.8,0.5
		c-0.6,0.3-1,0.8-1.3,1.3c-0.3,0.6-0.5,1.2-0.5,1.8c0,0.7,0.2,1.3,0.5,1.8c0.3,0.6,0.8,1,1.3,1.3c0.6,0.3,1.2,0.5,1.8,0.5
		C210.2,18.3,210.8,18.1,211.3,17.8z M211.5,14.9c-0.2,0.3-0.5,0.5-0.8,0.6l1.2,1.7h-1.3l-1.1-1.6h-0.8v1.6h-1.3V12h2.5
		c0.6,0,1.1,0.2,1.4,0.5c0.4,0.3,0.5,0.8,0.5,1.3C211.8,14.2,211.7,14.6,211.5,14.9z M208.7,14.4h1c0.2,0,0.4,0,0.5-0.1
		c0.1-0.1,0.2-0.2,0.2-0.4c0-0.2-0.1-0.3-0.2-0.4c-0.1-0.1-0.3-0.1-0.5-0.1h-1V14.4z"/>
</g>
<g>
	<g>
		<path class="st10" d="M109.7,52.5c0.8,0.5,1.4,1.2,1.8,2c0.4,0.9,0.7,1.8,0.7,2.9s-0.2,2.1-0.7,3c-0.4,0.9-1,1.6-1.8,2
			c-0.8,0.5-1.6,0.7-2.6,0.7c-0.9,0-1.6-0.2-2.3-0.6c-0.7-0.4-1.2-1-1.7-1.7v2h-1.6V48.2h1.6v5.9c0.4-0.7,1-1.3,1.7-1.7
			c0.7-0.4,1.5-0.6,2.3-0.6C108.1,51.8,108.9,52,109.7,52.5z M108.7,61.2c0.6-0.4,1-0.9,1.3-1.5c0.3-0.7,0.5-1.4,0.5-2.2
			c0-0.8-0.2-1.6-0.5-2.2s-0.7-1.2-1.3-1.5s-1.2-0.5-1.9-0.5s-1.3,0.2-1.9,0.5c-0.6,0.4-1,0.9-1.3,1.5s-0.5,1.4-0.5,2.2
			c0,0.8,0.2,1.6,0.5,2.2c0.3,0.7,0.7,1.2,1.3,1.5c0.6,0.4,1.2,0.5,1.9,0.5S108.2,61.6,108.7,61.2z"/>
		<path class="st10" d="M113.6,66.4L114,65c0.4,0.2,0.8,0.3,1.3,0.3c0.4,0,0.7-0.1,0.9-0.2s0.5-0.4,0.7-0.8l0.6-1.4L112.7,52h1.8
			l3.8,9.1l3.6-9.1h1.7l-5,12.1c-0.4,0.9-0.8,1.6-1.4,2c-0.5,0.4-1.2,0.6-2,0.6C114.7,66.7,114.1,66.6,113.6,66.4z"/>
		<path class="st10" d="M144.7,48.4l-6.4,14.5h-1.8l-6.4-14.5h1.8l5.5,12.5l5.5-12.5H144.7z"/>
		<path class="st10" d="M147.1,48.4h1.6l5.4,10.1l5.4-10.1h1.6v14.5h-1.6V52l-5.4,10.1L148.8,52v11h-1.6V48.4z"/>
		<path class="st10" d="M163.5,52h1.7l2.7,8.8l3-8.8h1.4l3,8.8l2.7-8.8h1.7l-3.7,10.9h-1.5l-2.9-8.7l-2.9,8.7h-1.5L163.5,52z"/>
		<path class="st10" d="M188.6,53c0.8,0.8,1.1,1.9,1.1,3.3v6.6h-1.6v-1.7c-0.4,0.6-0.9,1.1-1.6,1.4c-0.7,0.3-1.4,0.5-2.2,0.5
			c-1.2,0-2.1-0.3-2.9-0.9c-0.7-0.6-1.1-1.5-1.1-2.5c0-0.7,0.2-1.3,0.6-1.9s0.9-1,1.6-1.3c0.7-0.3,1.4-0.5,2.1-0.5
			c1.1,0,2.3,0.2,3.5,0.6v-0.4c0-0.9-0.2-1.6-0.7-2.2c-0.5-0.6-1.2-0.9-2.3-0.9c-0.5,0-1,0.1-1.5,0.3c-0.5,0.2-1.1,0.4-1.7,0.7
			l-0.6-1.3c1.4-0.7,2.7-1.1,3.9-1.1C186.8,51.8,187.9,52.2,188.6,53z M186.8,61.2c0.7-0.4,1.1-1,1.3-1.7v-1.7
			c-1.1-0.3-2.2-0.4-3.3-0.4c-0.8,0-1.5,0.2-2.1,0.6c-0.6,0.4-0.9,1-0.9,1.6c0,0.7,0.3,1.2,0.8,1.6c0.5,0.4,1.2,0.6,2,0.6
			C185.4,61.8,186.1,61.6,186.8,61.2z"/>
		<path class="st10" d="M196.1,52.4c0.7-0.4,1.6-0.6,2.6-0.6v1.4c-0.8,0-1.5,0.2-2.2,0.5c-0.6,0.3-1.1,0.7-1.5,1.3
			c-0.4,0.6-0.5,1.2-0.5,1.9v6.1h-1.6V52h1.6v2.1C194.8,53.4,195.3,52.8,196.1,52.4z"/>
		<path class="st10" d="M207,61.4c0.7-0.3,1.1-0.6,1.5-0.9l1,1c-0.5,0.5-1.1,0.9-2,1.2s-1.6,0.5-2.4,0.5c-1,0-1.9-0.2-2.7-0.7
			s-1.5-1.2-2-2.1c-0.5-0.9-0.8-1.9-0.8-2.9c0-1.1,0.2-2,0.7-2.9s1.1-1.6,2-2c0.8-0.5,1.7-0.7,2.7-0.7c1.6,0,2.9,0.6,3.8,1.7
			c0.9,1.1,1.4,2.7,1.4,4.6h-8.9c0.1,1.1,0.5,2,1.2,2.7c0.7,0.7,1.6,1,2.6,1C205.7,61.8,206.3,61.6,207,61.4z M202.4,54.1
			c-0.7,0.6-1.1,1.5-1.3,2.5h7.3c-0.1-1-0.5-1.9-1.1-2.5c-0.6-0.6-1.4-1-2.5-1C204,53.2,203.1,53.5,202.4,54.1z"/>
	</g>
</g>
<g>
	<polygon class="st2" points="54.8,22.6 36.4,13.7 18,22.6 13.4,42.6 26.2,58.6 46.6,58.6 59.4,42.6 	"/>
	<linearGradient id="SVGID_1_" gradientUnits="userSpaceOnUse" x1="55.507" y1="64.4804" x2="17.3122" y2="64.7532">
		<stop  offset="0" style="stop-color:#FFFFFF"/>
		<stop  offset="1" style="stop-color:#FFFFFF;stop-opacity:0"/>
	</linearGradient>
	<polygon class="st3" points="46.6,58.6 26.2,58.6 35.8,70.6 37,70.6 52.4,70.6 62.1,58.6 	"/>
	
		<linearGradient id="SVGID_00000093149397549952972230000013623027196154547874_" gradientUnits="userSpaceOnUse" x1="71.0641" y1="37.4836" x2="44.6006" y2="70.9041">
		<stop  offset="0" style="stop-color:#FFFFFF"/>
		<stop  offset="1" style="stop-color:#FFFFFF;stop-opacity:0"/>
	</linearGradient>
	<polygon style="fill:url(#SVGID_00000093149397549952972230000013623027196154547874_);" points="69,30.5 59.4,42.6 46.6,58.6 
		62.1,58.6 62.8,57.6 72.4,45.5 	"/>
	
		<linearGradient id="SVGID_00000005959643866167579730000000189779180087498941_" gradientUnits="userSpaceOnUse" x1="67.1736" y1="47.9224" x2="58.7162" y2="13.8199">
		<stop  offset="0" style="stop-color:#FFFFFF;stop-opacity:0"/>
		<stop  offset="1" style="stop-color:#FFFFFF"/>
	</linearGradient>
	<polygon style="fill:url(#SVGID_00000005959643866167579730000000189779180087498941_);" points="68.6,28.8 65.3,14.3 51.4,7.6 
		54.7,22.1 54.8,22.6 59.4,42.6 69,30.5 	"/>
	
		<linearGradient id="SVGID_00000173134152148742676430000015962397677369182620_" gradientUnits="userSpaceOnUse" x1="28.6021" y1="70.0549" x2="2.6842" y2="40.3175">
		<stop  offset="0" style="stop-color:#FFFFFF"/>
		<stop  offset="1" style="stop-color:#FFFFFF;stop-opacity:0"/>
	</linearGradient>
	<polygon style="fill:url(#SVGID_00000173134152148742676430000015962397677369182620_);" points="26.2,58.6 13.4,42.6 10,57.6 
		10.7,58.6 20.3,70.6 35.8,70.6 	"/>
	
		<linearGradient id="SVGID_00000178924949259073254600000000570514228866197426_" gradientUnits="userSpaceOnUse" x1="5.1358" y1="52.2537" x2="14.4116" y2="10.2394">
		<stop  offset="0" style="stop-color:#FFFFFF"/>
		<stop  offset="1" style="stop-color:#FFFFFF;stop-opacity:0"/>
	</linearGradient>
	<polygon style="fill:url(#SVGID_00000178924949259073254600000000570514228866197426_);" points="4,29.3 3.8,30.5 0.3,45.5 
		10,57.6 13.4,42.6 18,22.6 	"/>
	
		<linearGradient id="SVGID_00000171706699682272872410000017589686169883665801_" gradientUnits="userSpaceOnUse" x1="5.086" y1="22.5163" x2="43.69" y2="3.0096">
		<stop  offset="0" style="stop-color:#FFFFFF"/>
		<stop  offset="1" style="stop-color:#FFFFFF;stop-opacity:0"/>
	</linearGradient>
	<polygon style="fill:url(#SVGID_00000171706699682272872410000017589686169883665801_);" points="22.5,7 21.4,7.6 7.5,14.3 4,29.3 
		18,22.6 36.4,13.7 	"/>
	
		<linearGradient id="SVGID_00000044866100982093079680000016408445929999075002_" gradientUnits="userSpaceOnUse" x1="31.4497" y1="4.5629" x2="65.5522" y2="21.6141">
		<stop  offset="0" style="stop-color:#FFFFFF"/>
		<stop  offset="1" style="stop-color:#FFFFFF;stop-opacity:0"/>
	</linearGradient>
	<polygon style="fill:url(#SVGID_00000044866100982093079680000016408445929999075002_);" points="51.4,7.6 50.3,7 36.4,0.3 22.5,7 
		36.4,13.7 54.8,22.6 	"/>
</g>
</svg>
